<?xml version="1.0" encoding="UTF-8"?>
<svg id="_图层_1" data-name="图层_1" xmlns="http://www.w3.org/2000/svg" version="1.1" viewBox="0 0 2777.3 773">
  <!-- Generator: Adobe Illustrator 29.3.1, SVG Export Plug-In . SVG Version: 2.1.0 Build 151)  -->
  <defs>
    <style>
      .st0 {
        fill: #61bda2;
      }

      .st0, .st1 {
        font-family: YouSheBiaoTiHei, YouSheBiaoTiHei;
        font-size: 276.5px;
      }

      .st2 {
        fill: #b0e4d7;
      }

      .st3 {
        fill: #64c2a8;
      }

      .st1 {
        fill: #abe0d3;
      }
    </style>
  </defs>
  <g>
    <path class="st2" d="M340.8,142.3c5.9-1.2,9.2-.1,14.3,2.3,37.5,17.7,74.4,45.4,111.9,64.1,15,12,1.4,35.2-16.5,28.5l-116.4-66.6c-9.3-8-5.1-25.8,6.7-28.2Z"/>
    <path class="st2" d="M264.5,512.7c-10.7-13.5.5-31.6,17.7-27.2l110.3,61.7c15.2,10.9,3.2,35.5-14.6,29.6-38.1-20.7-76.1-42-113.4-64.1Z"/>
    <path class="st2" d="M183.9,522.2c5.5-.5,12.3,3.7,17.2,6.3,32.4,16.7,63.7,35.9,95.9,53.1,14.2,12.6-.4,35.8-17.9,27.9l-103.3-56.7c-12.5-8.8-7.2-29.1,8.1-30.6Z"/>
    <path class="st2" d="M333.9,296.2c11-.6,22.6,6.5,26.7,16.8,11,28-23.2,50.2-44,30s-5.9-45.6,17.3-46.8Z"/>
    <path class="st2" d="M384.9,453.3c37.2-5.3,42.5,49.6,8.6,53.6-37.3,4.5-42-48.9-8.6-53.6Z"/>
    <path class="st2" d="M373.9,370.3c35.1-4.1,41.6,49.6,7.6,53.6-38.3,4.5-41.4-49.7-7.6-53.6Z"/>
    <path class="st2" d="M439.8,114.3c2.8-.5,7.6-.6,10.3.2,3.9,1.2,36.4,20.4,40.4,23.6,14.1,11.1,3,33.5-14.8,29.8-11.4-8-33.6-15.9-43.2-24.8s-5.4-26.4,7.2-28.8Z"/>
    <path class="st3" d="M316.9,213.3c42.2-6.6,42.9,58.3.8,52.7-29.1-3.9-29.5-48.2-.8-52.7Z"/>
    <path class="st2" d="M512.8,157.3c2.1-.4,4.6-.4,6.8-.2,10.6,1.1,33.3,20.1,44.4,24.6,11.6,14.2.5,32.7-17.9,27.9-10.5-8.1-32.8-15.7-41.5-24.5-8.2-8.4-3.7-25.6,8.2-27.8Z"/>
    <path class="st2" d="M454,326c1.8-1.2,7.1-21.5,15.6-13,5.3,5.3-3.5,14.2-5.5,19.5.4,2,26.4,13.3,29.1,17s.5,10.8-4.8,11.4-24.3-13.7-30.8-15.6c-3.2.3-9.3,23.5-18,14.8-5.8-5.8,5.6-15.8,6.6-22l-30.9-16.6c-4.8-5.4-1.3-13.7,6.2-12.3s30.3,18.4,32.7,16.7Z"/>
    <path class="st2" d="M225.8,367.2c2.1-.3,5.3,1.4,7.3,2.3,3.8,1.8,22.7,13.6,24.5,13.6,4.8,0,6.8-19.2,15.8-13.9s-2.7,14.3-3.9,19.9c2.1,3.5,25.9,12.5,30.6,17.4s.2,13.4-8.1,11.1-26.7-16.1-29.4-15.5c-4.6,4.5-7.9,19.7-16.6,15.4-7.7-3.7,4-16.6,4.9-21.9l-29.4-16.6c-3.4-3.9-1.2-11,4.2-11.8Z"/>
    <path class="st2" d="M585.8,102.3c37-6.3,36.5,50.3,2,45.5-26.6-3.7-25.4-41.5-2-45.5Z"/>
    <path class="st3" d="M517.8,282.2c2.5-.8,5.6-.3,8,.6s27.1,14.5,30.2,16.8,3.5,2.8,3.9,4.1c-.1,23.5-32.3-7-42.8-9.3-4.3-2.4-3.9-10.9.7-12.3Z"/>
    <path class="st3" d="M163.8,412.2c2.5-.6,3.7-.1,6,.6,3.6,1.1,28.1,14.4,31.2,16.8,7.9,6,3.1,14.6-7,12-9.3-2.4-22.2-13.6-31.9-17.1-4.5-3.2-4.1-11,1.7-12.3Z"/>
  </g>
  <text class="st0" transform="translate(559.9 593.6)"><tspan x="0" y="0">Primor</tspan></text>
  <text class="st1" transform="translate(1595 593.6)"><tspan x="0" y="0">Decode</tspan></text>
</svg>